<svg id="Layer_1" data-name="Layer 1" xmlns="http://www.w3.org/2000/svg" viewBox="0 0 256 256"><defs><style>.cls-1{fill:#fff;}</style></defs><path class="cls-1" d="M173.92.21c1.73,1.52,1.75,3.06.45,5-3.35,5-6.54,10-9.79,15-.44.68-.84,1.39-1.28,2.11C185.85,34.74,199.63,52.42,199,79.4H57c-.71-26.91,13.08-44.62,35.74-57.09C89.1,16.65,85.51,11,81.77,5.4c-1.32-1.95-1.6-3.57.31-5.19h2c.76,1,1.6,1.88,2.28,2.91,3.41,5.21,6.81,10.42,10.12,15.68.77,1.22,1.43,1.36,2.81,1,5.49-1.56,11-3.33,16.57-4.27A77.28,77.28,0,0,1,153,18.4c5.55,1.81,5.48,1.9,8.69-2.95C165,10.34,168.5,5.29,171.92.21Zm-78.81,55A6.76,6.76,0,0,0,102,48.47a6.91,6.91,0,0,0-6.89-6.78,6.77,6.77,0,0,0-6.7,6.67A6.64,6.64,0,0,0,95.11,55.21Zm65.67,0a6.61,6.61,0,0,0,6.8-6.75A6.72,6.72,0,0,0,161,41.69a6.91,6.91,0,0,0-7,6.68A6.76,6.76,0,0,0,160.78,55.21Z"/><path class="cls-1" d="M86.44,204.67c-4.49,0-8.73.25-12.92-.08a26.25,26.25,0,0,1-9.08-2.05c-4.22-2-6.4-5.89-6.84-10.61-.09-.91-.12-1.82-.12-2.74v-103h141v2.62c0,33.35-.13,66.7.09,100.05.06,9.29-6,16.2-16,15.84-4.22-.15-8.45,0-13,0v3.16c0,10.73.13,21.46-.05,32.19-.2,12.54-13,19.78-23.6,13.43-5-3-7.43-7.68-7.44-13.54,0-10.73,0-21.46,0-32.18v-2.88H117.53v2.55c0,11,.08,22,0,32.94-.07,6.48-3.14,11.39-9.11,14a15.06,15.06,0,0,1-16.77-2.53,13.35,13.35,0,0,1-5-10.21c-.14-11.22-.1-22.45-.14-33.68Z"/><path class="cls-1" d="M237,132c0,10.81.1,21.61,0,32.42-.14,11.49-10.21,18.62-20.92,15-6.18-2.1-10.11-7.87-10.13-15.07,0-12.22,0-24.44,0-36.65,0-9.56-.07-19.12,0-28.68a15.12,15.12,0,0,1,10.68-14.66,15.63,15.63,0,0,1,17.37,5.45,16.29,16.29,0,0,1,3,10.3C236.93,110.68,237,121.32,237,132Z"/><path class="cls-1" d="M19.05,131.84c0-10.81-.1-21.61,0-32.42C19.21,88,29.36,80.79,40,84.49c6.23,2.17,10.09,7.85,10.11,15.08q0,21.2,0,42.39c0,7.65.09,15.3,0,22.94C50,171.39,47,176.29,41,178.9a15.08,15.08,0,0,1-16.77-2.47,13.33,13.33,0,0,1-5.06-10.18c-.1-11.47,0-22.94,0-34.41Z"/></svg>