<?xml version="1.0" encoding="utf-8"?>
<!-- Generator: Adobe Illustrator 25.3.0, SVG Export Plug-In . SVG Version: 6.00 Build 0)  -->
<svg version="1.1" id="Layer_1" xmlns="http://www.w3.org/2000/svg" xmlns:xlink="http://www.w3.org/1999/xlink" x="0px" y="0px"
	 viewBox="0 0 512 309.7" style="enable-background:new 0 0 512 309.7;" xml:space="preserve">
<style type="text/css">
	.st0{fill:#F37940;}
	.st1{fill:#2F3847;}
</style>
<g>
	<path class="st0" d="M109.6,160.4c-3.1,0-6.7,1.7-10.6,0c-3.9,0.1-8-4.3-12.1,0c-4.1-1.4-8.2,0.3-12.1,0c-3.9,2.4-7.5,3.4-10.6,0
		c-3.1,0-5.7,0-7.5,0c-1.8,0-2.8,0-2.8,0s0,6.4,0,16.3c-0.1,1.1-0.2,2-0.2,3c-2.8,12.2-2.8,24.3,0.2,36.5c-0.1,0.8,0,2.8,0,3.5
		c0,0,0,0.1,0,0.4c0,0,0,0.1,0,0.1c0,0.8,0,2.7,0,5.3c0,0.1-0.1,0.8-0.2,1.6c-4.8,12-2.8,24.1,0.2,36.1c0,0.8,0.1,1.7,0.1,2.4
		c0,8.6,0,14.1,0,14.1s1,0,2.8,0c1.8,0,4.4,2.9,7.5,0c3.1-0.1,6.7-0.7,10.6,0c1.9-0.6,3.9-1.2,6-1.3c2-0.1,4.1,0.2,6.2,1.3
		c2.1,3.3,4.1,2.1,6.2-1.3c2-1.5,4-1.4,6,1.3c1.9,0.9,3.8,2.3,5.6,0c1.8,2.7,3.4,1.6,5,0c3.1-1.2,5.7,4,7.5,0c1.8-1.3,2.8,3,2.8,0
		c0-0.3,0-0.5,0-0.8c0,0,0-0.2,0-0.6c0,0,0-0.2,0-0.4c0-0.7,0-1.9,0-2.7c0,0,0-0.2,0-0.6c0,0,0-0.1,0-0.1c0-0.5,0-1.4,0-2.6
		c0-0.1,0-0.1,0-0.2c0,0,0-0.1,0-0.3c0-0.4,0-1.1,0-2.7c0-0.8,0,0,0-3.6c0,0-0.1-1-0.3-2.9c-2.7-10.2-2-20.3,0-30.2
		c0-1,0.2-2.9,0.2-3.3c3.9-11.7,1.8-23.8,0.2-36.1c0-1.6,0-3.2,0-4.5c0-3.1,0-6,0-8.7c0-11.2,0-18.6,0-18.6S115.8,160.4,109.6,160.4
		z"/>
	<path class="st1" d="M109.6,19c-3.1,0-6.7,1.7-10.6,0c-3.9,0.1-8-4.3-12.1,0c-4.1-1.4-8.2,0.3-12.1,0c-3.9,2.4-7.5,3.4-10.6,0
		c-3.1,0-5.7,0-7.5,0C55,19,54,19,54,19s0,6.4,0,16.3c-0.1,1.1-0.2,2-0.2,3C51,50.4,51,62.5,53.9,74.7c-0.1,0.8,0,2.8,0,3.5
		c0,0,0,0.1,0,0.4c0,0,0,0.1,0,0.1c0,0.8,0,2.7,0,5.3c0,0.1-0.1,0.8-0.2,1.6c-4.8,12-2.8,24.1,0.2,36.1c0,0.8,0.1,1.7,0.1,2.4
		c0,8.6,0,14.1,0,14.1s1,0,2.8,0c1.8,0,4.4,2.9,7.5,0c3.1-0.1,6.7-0.7,10.6,0c1.9-0.6,3.9-1.2,6-1.3c2-0.1,4.1,0.2,6.2,1.3
		c2.1,3.3,4.1,2.1,6.2-1.3c2-1.5,4-1.4,6,1.3c1.9,0.9,3.8,2.3,5.6,0c1.8,2.7,3.4,1.6,5,0c3.1-1.2,5.7,4,7.5,0c1.8-1.3,2.8,3,2.8,0
		c0-0.3,0-0.5,0-0.8c0,0,0-0.2,0-0.6c0,0,0-0.2,0-0.4c0-0.7,0-1.9,0-2.7c0,0,0-0.2,0-0.6c0,0,0-0.1,0-0.1c0-0.5,0-1.4,0-2.6
		c0-0.1,0-0.1,0-0.2c0,0,0-0.1,0-0.3c0-0.4,0-1.1,0-2.7c0-0.8,0,0,0-3.6c0,0-0.1-1-0.3-2.9c-2.7-10.2-2-20.3,0-30.2
		c0-1,0.2-2.9,0.2-3.3c3.9-11.7,1.8-23.8,0.2-36.1c0-1.6,0-3.2,0-4.5c0-3.1,0-6,0-8.7c0-11.2,0-18.6,0-18.6S115.8,19,109.6,19z"/>
	<path class="st0" d="M222.7,160.4c-3.1,0-6.7,1.7-10.6,0c-3.9,0.1-8-4.3-12.1,0c-4.1-1.4-8.2,0.3-12.1,0c-3.9,2.4-7.5,3.4-10.6,0
		c-3.1,0-5.7,0-7.5,0s-2.8,0-2.8,0s0,6.4,0,16.3c-0.1,1.1-0.2,2-0.2,3c-2.8,12.2-2.8,24.3,0.2,36.5c-0.1,0.8,0,2.8,0,3.5
		c0,0,0,0.1,0,0.4c0,0,0,0.1,0,0.1c0,0.8,0,2.7,0,5.3c0,0.1-0.1,0.8-0.2,1.6c-4.8,12-2.8,24.1,0.2,36.1c0,0.8,0.1,1.7,0.1,2.4
		c0,8.6,0,14.1,0,14.1s1,0,2.8,0s4.4,2.9,7.5,0c3.1-0.1,6.7-0.7,10.6,0c1.9-0.6,3.9-1.2,6-1.3c2-0.1,4.1,0.2,6.2,1.3
		c2.1,3.3,4.1,2.1,6.2-1.3c2-1.5,4-1.4,6,1.3c1.9,0.9,3.8,2.3,5.6,0c1.8,2.7,3.4,1.6,5,0c3.1-1.2,5.7,4,7.5,0c1.8-1.3,2.8,3,2.8,0
		c0-0.3,0-0.5,0-0.8c0,0,0-0.2,0-0.6c0,0,0-0.2,0-0.4c0-0.7,0-1.9,0-2.7c0,0,0-0.2,0-0.6c0,0,0-0.1,0-0.1c0-0.5,0-1.4,0-2.6
		c0-0.1,0-0.1,0-0.2c0,0,0-0.1,0-0.3c0-0.4,0-1.1,0-2.7c0-0.8,0,0,0-3.6c0,0-0.1-1-0.3-2.9c-2.7-10.2-2-20.3,0-30.2
		c0-1,0.2-2.9,0.2-3.3c3.9-11.7,1.8-23.8,0.2-36.1c0-1.6,0-3.2,0-4.5c0-3.1,0-6,0-8.7c0-11.2,0-18.6,0-18.6S228.9,160.4,222.7,160.4
		z"/>
	<path class="st1" d="M222.7,19c-3.1,0-6.7,1.7-10.6,0c-3.9,0.1-8-4.3-12.1,0c-4.1-1.4-8.2,0.3-12.1,0c-3.9,2.4-7.5,3.4-10.6,0
		c-3.1,0-5.7,0-7.5,0s-2.8,0-2.8,0s0,6.4,0,16.3c-0.1,1.1-0.2,2-0.2,3C164,50.4,164,62.5,167,74.7c-0.1,0.8,0,2.8,0,3.5
		c0,0,0,0.1,0,0.4c0,0,0,0.1,0,0.1c0,0.8,0,2.7,0,5.3c0,0.1-0.1,0.8-0.2,1.6c-4.8,12-2.8,24.1,0.2,36.1c0,0.8,0.1,1.7,0.1,2.4
		c0,8.6,0,14.1,0,14.1s1,0,2.8,0s4.4,2.9,7.5,0c3.1-0.1,6.7-0.7,10.6,0c1.9-0.6,3.9-1.2,6-1.3c2-0.1,4.1,0.2,6.2,1.3
		c2.1,3.3,4.1,2.1,6.2-1.3c2-1.5,4-1.4,6,1.3c1.9,0.9,3.8,2.3,5.6,0c1.8,2.7,3.4,1.6,5,0c3.1-1.2,5.7,4,7.5,0c1.8-1.3,2.8,3,2.8,0
		c0-0.3,0-0.5,0-0.8c0,0,0-0.2,0-0.6c0,0,0-0.2,0-0.4c0-0.7,0-1.9,0-2.7c0,0,0-0.2,0-0.6c0,0,0-0.1,0-0.1c0-0.5,0-1.4,0-2.6
		c0-0.1,0-0.1,0-0.2c0,0,0-0.1,0-0.3c0-0.4,0-1.1,0-2.7c0-0.8,0,0,0-3.6c0,0-0.1-1-0.3-2.9c-2.7-10.2-2-20.3,0-30.2
		c0-1,0.2-2.9,0.2-3.3c3.9-11.7,1.8-23.8,0.2-36.1c0-1.6,0-3.2,0-4.5c0-3.1,0-6,0-8.7c0-11.2,0-18.6,0-18.6S228.9,19,222.7,19z"/>
	<path class="st0" d="M335.7,160.4c-3.1,0-6.7,1.7-10.6,0c-3.9,0.1-8-4.3-12.1,0c-4.1-1.4-8.2,0.3-12.1,0c-3.9,2.4-7.5,3.4-10.6,0
		c-3.1,0-5.7,0-7.5,0c-1.8,0-2.8,0-2.8,0s0,6.4,0,16.3c-0.1,1.1-0.2,2-0.2,3c-2.8,12.2-2.8,24.3,0.2,36.5c-0.1,0.8,0,2.8,0,3.5
		c0,0,0,0.1,0,0.4c0,0,0,0.1,0,0.1c0,0.8,0,2.7,0,5.3c0,0.1-0.1,0.8-0.2,1.6c-4.8,12-2.8,24.1,0.2,36.1c0,0.8,0.1,1.7,0.1,2.4
		c0,8.6,0,14.1,0,14.1s1,0,2.8,0c1.8,0,4.4,2.9,7.5,0c3.1-0.1,6.7-0.7,10.6,0c1.9-0.6,3.9-1.2,6-1.3c2-0.1,4.1,0.2,6.2,1.3
		c2.1,3.3,4.1,2.1,6.2-1.3c2-1.5,4-1.4,6,1.3c1.9,0.9,3.8,2.3,5.6,0c1.8,2.7,3.4,1.6,5,0c3.1-1.2,5.7,4,7.5,0c1.8-1.3,2.8,3,2.8,0
		c0-0.3,0-0.5,0-0.8c0,0,0-0.2,0-0.6c0,0,0-0.2,0-0.4c0-0.7,0-1.9,0-2.7c0,0,0-0.2,0-0.6c0,0,0-0.1,0-0.1c0-0.5,0-1.4,0-2.6
		c0-0.1,0-0.1,0-0.2c0,0,0-0.1,0-0.3c0-0.4,0-1.1,0-2.7c0-0.8,0,0,0-3.6c0,0-0.1-1-0.3-2.9c-2.7-10.2-2-20.3,0-30.2
		c0-1,0.2-2.9,0.2-3.3c3.9-11.7,1.8-23.8,0.2-36.1c0-1.6,0-3.2,0-4.5c0-3.1,0-6,0-8.7c0-11.2,0-18.6,0-18.6S341.9,160.4,335.7,160.4
		z"/>
	<path class="st1" d="M335.7,19c-3.1,0-6.7,1.7-10.6,0c-3.9,0.1-8-4.3-12.1,0c-4.1-1.4-8.2,0.3-12.1,0c-3.9,2.4-7.5,3.4-10.6,0
		c-3.1,0-5.7,0-7.5,0c-1.8,0-2.8,0-2.8,0s0,6.4,0,16.3c-0.1,1.1-0.2,2-0.2,3c-2.8,12.2-2.8,24.3,0.2,36.5c-0.1,0.8,0,2.8,0,3.5
		c0,0,0,0.1,0,0.4c0,0,0,0.1,0,0.1c0,0.8,0,2.7,0,5.3c0,0.1-0.1,0.8-0.2,1.6c-4.8,12-2.8,24.1,0.2,36.1c0,0.8,0.1,1.7,0.1,2.4
		c0,8.6,0,14.1,0,14.1s1,0,2.8,0c1.8,0,4.4,2.9,7.5,0c3.1-0.1,6.7-0.7,10.6,0c1.9-0.6,3.9-1.2,6-1.3c2-0.1,4.1,0.2,6.2,1.3
		c2.1,3.3,4.1,2.1,6.2-1.3c2-1.5,4-1.4,6,1.3c1.9,0.9,3.8,2.3,5.6,0c1.8,2.7,3.4,1.6,5,0c3.1-1.2,5.7,4,7.5,0c1.8-1.3,2.8,3,2.8,0
		c0-0.3,0-0.5,0-0.8c0,0,0-0.2,0-0.6c0,0,0-0.2,0-0.4c0-0.7,0-1.9,0-2.7c0,0,0-0.2,0-0.6c0,0,0-0.1,0-0.1c0-0.5,0-1.4,0-2.6
		c0-0.1,0-0.1,0-0.2c0,0,0-0.1,0-0.3c0-0.4,0-1.1,0-2.7c0-0.8,0,0,0-3.6c0,0-0.1-1-0.3-2.9c-2.7-10.2-2-20.3,0-30.2
		c0-1,0.2-2.9,0.2-3.3c3.9-11.7,1.8-23.8,0.2-36.1c0-1.6,0-3.2,0-4.5c0-3.1,0-6,0-8.7c0-11.2,0-18.6,0-18.6S341.9,19,335.7,19z"/>
	<path class="st0" d="M448.8,160.4c-3.1,0-6.7,1.7-10.6,0c-3.9,0.1-8-4.3-12.1,0c-4.1-1.4-8.2,0.3-12.1,0c-3.9,2.4-7.5,3.4-10.6,0
		c-3.1,0-5.7,0-7.5,0c-1.8,0-2.8,0-2.8,0s0,6.4,0,16.3c-0.1,1.1-0.2,2-0.2,3c-2.8,12.2-2.8,24.3,0.2,36.5c-0.1,0.8,0,2.8,0,3.5
		c0,0,0,0.1,0,0.4c0,0,0,0.1,0,0.1c0,0.8,0,2.7,0,5.3c0,0.1-0.1,0.8-0.2,1.6c-4.8,12-2.8,24.1,0.2,36.1c0,0.8,0.1,1.7,0.1,2.4
		c0,8.6,0,14.1,0,14.1s1,0,2.8,0c1.8,0,4.4,2.9,7.5,0c3.1-0.1,6.7-0.7,10.6,0c1.9-0.6,3.9-1.2,6-1.3c2-0.1,4.1,0.2,6.2,1.3
		c2.1,3.3,4.1,2.1,6.2-1.3c2-1.5,4-1.4,6,1.3c1.9,0.9,3.8,2.3,5.6,0c1.8,2.7,3.4,1.6,5,0c3.1-1.2,5.7,4,7.5,0c1.8-1.3,2.8,3,2.8,0
		c0-0.3,0-0.5,0-0.8c0,0,0-0.2,0-0.6c0,0,0-0.2,0-0.4c0-0.7,0-1.9,0-2.7c0,0,0-0.2,0-0.6c0,0,0-0.1,0-0.1c0-0.5,0-1.4,0-2.6
		c0-0.1,0-0.1,0-0.2c0,0,0-0.1,0-0.3c0-0.4,0-1.1,0-2.7c0-0.8,0,0,0-3.6c0,0-0.1-1-0.3-2.9c-2.7-10.2-2-20.3,0-30.2
		c0-1,0.2-2.9,0.2-3.3c3.9-11.7,1.8-23.8,0.2-36.1c0-1.6,0-3.2,0-4.5c0-3.1,0-6,0-8.7c0-11.2,0-18.6,0-18.6S455,160.4,448.8,160.4z"
		/>
</g>
</svg>
