<?xml version="1.0" encoding="utf-8"?>
<!-- Generator: Adobe Illustrator 25.3.0, SVG Export Plug-In . SVG Version: 6.00 Build 0)  -->
<svg version="1.1" id="Layer_1" xmlns="http://www.w3.org/2000/svg" xmlns:xlink="http://www.w3.org/1999/xlink" x="0px" y="0px"
	 viewBox="0 0 550 550" style="enable-background:new 0 0 550 550;" xml:space="preserve">
<style type="text/css">
	.st0{fill:#F37940;}
	.st1{fill:#2F3847;}
</style>
<g>
	<path class="st0" d="M128.6,144.9c-3.1,0-6.7,1.7-10.6,0c-3.9,0.1-8-4.3-12.1,0c-4.1-1.4-8.2,0.3-12.1,0c-3.9,2.4-7.5,3.4-10.6,0
		c-3.1,0-5.7,0-7.5,0s-2.8,0-2.8,0s0,6.4,0,16.3c-0.1,1.1-0.2,2-0.2,3c-2.8,12.2-2.8,24.3,0.2,36.5c-0.1,0.8,0,2.8,0,3.5
		c0,0,0,0.1,0,0.4c0,0,0,0.1,0,0.1c0,0.8,0,2.7,0,5.3c0,0.1-0.1,0.8-0.2,1.6c-4.8,12-2.8,24.1,0.2,36.1c0,0.8,0.1,1.7,0.1,2.4
		c0,8.6,0,14.1,0,14.1s1,0,2.8,0s4.4,2.9,7.5,0c3.1-0.1,6.7-0.7,10.6,0c1.9-0.6,3.9-1.2,6-1.3c2-0.1,4.1,0.2,6.2,1.3
		c2.1,3.3,4.1,2.1,6.2-1.3c2-1.5,4-1.4,6,1.3c1.9,0.9,3.8,2.3,5.6,0c1.8,2.7,3.4,1.6,5,0c3.1-1.2,5.7,4,7.5,0c1.8-1.3,2.8,3,2.8,0
		c0-0.3,0-0.5,0-0.8c0,0,0-0.2,0-0.6c0,0,0-0.2,0-0.4c0-0.7,0-1.9,0-2.7c0,0,0-0.2,0-0.6c0,0,0-0.1,0-0.1c0-0.5,0-1.4,0-2.6
		c0-0.1,0-0.1,0-0.2c0,0,0-0.1,0-0.3c0-0.4,0-1.1,0-2.7c0-0.8,0,0,0-3.6c0,0-0.1-1-0.3-2.9c-2.7-10.2-2-20.3,0-30.2
		c0-1,0.2-2.9,0.2-3.3c3.9-11.7,1.8-23.8,0.2-36.1c0-1.6,0-3.2,0-4.5c0-3.1,0-6,0-8.7c0-11.2,0-18.6,0-18.6S134.8,144.9,128.6,144.9
		z"/>
	<path class="st1" d="M128.6,3.6c-3.1,0-6.7,1.7-10.6,0c-3.9,0.1-8-4.3-12.1,0c-4.1-1.4-8.2,0.3-12.1,0C90,6,86.4,7,83.3,3.6
		c-3.1,0-5.7,0-7.5,0s-2.8,0-2.8,0s0,6.4,0,16.3c-0.1,1.1-0.2,2-0.2,3C70,35,70,47.1,72.9,59.3c-0.1,0.8,0,2.8,0,3.5
		c0,0,0,0.1,0,0.4c0,0,0,0.1,0,0.1c0,0.8,0,2.7,0,5.3c0,0.1-0.1,0.8-0.2,1.6c-4.8,12-2.8,24.1,0.2,36.1c0,0.8,0.1,1.7,0.1,2.4
		c0,8.6,0,14.1,0,14.1s1,0,2.8,0s4.4,2.9,7.5,0c3.1-0.1,6.7-0.7,10.6,0c1.9-0.6,3.9-1.2,6-1.3c2-0.1,4.1,0.2,6.2,1.3
		c2.1,3.3,4.1,2.1,6.2-1.3c2-1.5,4-1.4,6,1.3c1.9,0.9,3.8,2.3,5.6,0c1.8,2.7,3.4,1.6,5,0c3.1-1.2,5.7,4,7.5,0c1.8-1.3,2.8,3,2.8,0
		c0-0.3,0-0.5,0-0.8c0,0,0-0.2,0-0.6c0,0,0-0.2,0-0.4c0-0.7,0-1.9,0-2.7c0,0,0-0.2,0-0.6c0,0,0-0.1,0-0.1c0-0.5,0-1.4,0-2.6
		c0-0.1,0-0.1,0-0.2c0,0,0-0.1,0-0.3c0-0.4,0-1.1,0-2.7c0-0.8,0,0,0-3.6c0,0-0.1-1-0.3-2.9c-2.7-10.2-2-20.3,0-30.2
		c0-1,0.2-2.9,0.2-3.3c3.9-11.7,1.8-23.8,0.2-36.1c0-1.6,0-3.2,0-4.5c0-3.1,0-6,0-8.7c0-11.2,0-18.6,0-18.6S134.8,3.6,128.6,3.6z"/>
	<path class="st0" d="M241.7,144.9c-3.1,0-6.7,1.7-10.6,0c-3.9,0.1-8-4.3-12.1,0c-4.1-1.4-8.2,0.3-12.1,0c-3.9,2.4-7.5,3.4-10.6,0
		c-3.1,0-5.7,0-7.5,0s-2.8,0-2.8,0s0,6.4,0,16.3c-0.1,1.1-0.2,2-0.2,3c-2.8,12.2-2.8,24.3,0.2,36.5c-0.1,0.8,0,2.8,0,3.5
		c0,0,0,0.1,0,0.4c0,0,0,0.1,0,0.1c0,0.8,0,2.7,0,5.3c0,0.1-0.1,0.8-0.2,1.6c-4.8,12-2.8,24.1,0.2,36.1c0,0.8,0.1,1.7,0.1,2.4
		c0,8.6,0,14.1,0,14.1s1,0,2.8,0s4.4,2.9,7.5,0c3.1-0.1,6.7-0.7,10.6,0c1.9-0.6,3.9-1.2,6-1.3c2-0.1,4.1,0.2,6.2,1.3
		c2.1,3.3,4.1,2.1,6.2-1.3c2-1.5,4-1.4,6,1.3c1.9,0.9,3.8,2.3,5.6,0c1.8,2.7,3.4,1.6,5,0c3.1-1.2,5.7,4,7.5,0c1.8-1.3,2.8,3,2.8,0
		c0-0.3,0-0.5,0-0.8c0,0,0-0.2,0-0.6c0,0,0-0.2,0-0.4c0-0.7,0-1.9,0-2.7c0,0,0-0.2,0-0.6c0,0,0-0.1,0-0.1c0-0.5,0-1.4,0-2.6
		c0-0.1,0-0.1,0-0.2c0,0,0-0.1,0-0.3c0-0.4,0-1.1,0-2.7c0-0.8,0,0,0-3.6c0,0-0.1-1-0.3-2.9c-2.7-10.2-2-20.3,0-30.2
		c0-1,0.2-2.9,0.2-3.3c3.9-11.7,1.8-23.8,0.2-36.1c0-1.6,0-3.2,0-4.5c0-3.1,0-6,0-8.7c0-11.2,0-18.6,0-18.6S247.9,144.9,241.7,144.9
		z"/>
	<path class="st1" d="M241.7,3.6c-3.1,0-6.7,1.7-10.6,0c-3.9,0.1-8-4.3-12.1,0c-4.1-1.4-8.2,0.3-12.1,0c-3.9,2.4-7.5,3.4-10.6,0
		c-3.1,0-5.7,0-7.5,0s-2.8,0-2.8,0s0,6.4,0,16.3c-0.1,1.1-0.2,2-0.2,3C183,35,183,47.1,186,59.3c-0.1,0.8,0,2.8,0,3.5
		c0,0,0,0.1,0,0.4c0,0,0,0.1,0,0.1c0,0.8,0,2.7,0,5.3c0,0.1-0.1,0.8-0.2,1.6c-4.8,12-2.8,24.1,0.2,36.1c0,0.8,0.1,1.7,0.1,2.4
		c0,8.6,0,14.1,0,14.1s1,0,2.8,0s4.4,2.9,7.5,0c3.1-0.1,6.7-0.7,10.6,0c1.9-0.6,3.9-1.2,6-1.3c2-0.1,4.1,0.2,6.2,1.3
		c2.1,3.3,4.1,2.1,6.2-1.3c2-1.5,4-1.4,6,1.3c1.9,0.9,3.8,2.3,5.6,0c1.8,2.7,3.4,1.6,5,0c3.1-1.2,5.7,4,7.5,0c1.8-1.3,2.8,3,2.8,0
		c0-0.3,0-0.5,0-0.8c0,0,0-0.2,0-0.6c0,0,0-0.2,0-0.4c0-0.7,0-1.9,0-2.7c0,0,0-0.2,0-0.6c0,0,0-0.1,0-0.1c0-0.5,0-1.4,0-2.6
		c0-0.1,0-0.1,0-0.2c0,0,0-0.1,0-0.3c0-0.4,0-1.1,0-2.7c0-0.8,0,0,0-3.6c0,0-0.1-1-0.3-2.9c-2.7-10.2-2-20.3,0-30.2
		c0-1,0.2-2.9,0.2-3.3c3.9-11.7,1.8-23.8,0.2-36.1c0-1.6,0-3.2,0-4.5c0-3.1,0-6,0-8.7c0-11.2,0-18.6,0-18.6S247.9,3.6,241.7,3.6z"/>
	<path class="st0" d="M354.7,144.9c-3.1,0-6.7,1.7-10.6,0c-3.9,0.1-8-4.3-12.1,0c-4.1-1.4-8.2,0.3-12.1,0c-3.9,2.4-7.5,3.4-10.6,0
		c-3.1,0-5.7,0-7.5,0c-1.8,0-2.8,0-2.8,0s0,6.4,0,16.3c-0.1,1.1-0.2,2-0.2,3c-2.8,12.2-2.8,24.3,0.2,36.5c-0.1,0.8,0,2.8,0,3.5
		c0,0,0,0.1,0,0.4c0,0,0,0.1,0,0.1c0,0.8,0,2.7,0,5.3c0,0.1-0.1,0.8-0.2,1.6c-4.8,12-2.8,24.1,0.2,36.1c0,0.8,0.1,1.7,0.1,2.4
		c0,8.6,0,14.1,0,14.1s1,0,2.8,0c1.8,0,4.4,2.9,7.5,0c3.1-0.1,6.7-0.7,10.6,0c1.9-0.6,3.9-1.2,6-1.3c2-0.1,4.1,0.2,6.2,1.3
		c2.1,3.3,4.1,2.1,6.2-1.3c2-1.5,4-1.4,6,1.3c1.9,0.9,3.8,2.3,5.6,0c1.8,2.7,3.4,1.6,5,0c3.1-1.2,5.7,4,7.5,0c1.8-1.3,2.8,3,2.8,0
		c0-0.3,0-0.5,0-0.8c0,0,0-0.2,0-0.6c0,0,0-0.2,0-0.4c0-0.7,0-1.9,0-2.7c0,0,0-0.2,0-0.6c0,0,0-0.1,0-0.1c0-0.5,0-1.4,0-2.6
		c0-0.1,0-0.1,0-0.2c0,0,0-0.1,0-0.3c0-0.4,0-1.1,0-2.7c0-0.8,0,0,0-3.6c0,0-0.1-1-0.3-2.9c-2.7-10.2-2-20.3,0-30.2
		c0-1,0.2-2.9,0.2-3.3c3.9-11.7,1.8-23.8,0.2-36.1c0-1.6,0-3.2,0-4.5c0-3.1,0-6,0-8.7c0-11.2,0-18.6,0-18.6S360.9,144.9,354.7,144.9
		z"/>
	<path class="st1" d="M354.7,3.6c-3.1,0-6.7,1.7-10.6,0c-3.9,0.1-8-4.3-12.1,0c-4.1-1.4-8.2,0.3-12.1,0c-3.9,2.4-7.5,3.4-10.6,0
		c-3.1,0-5.7,0-7.5,0c-1.8,0-2.8,0-2.8,0s0,6.4,0,16.3c-0.1,1.1-0.2,2-0.2,3c-2.8,12.2-2.8,24.3,0.2,36.5c-0.1,0.8,0,2.8,0,3.5
		c0,0,0,0.1,0,0.4c0,0,0,0.1,0,0.1c0,0.8,0,2.7,0,5.3c0,0.1-0.1,0.8-0.2,1.6c-4.8,12-2.8,24.1,0.2,36.1c0,0.8,0.1,1.7,0.1,2.4
		c0,8.6,0,14.1,0,14.1s1,0,2.8,0c1.8,0,4.4,2.9,7.5,0c3.1-0.1,6.7-0.7,10.6,0c1.9-0.6,3.9-1.2,6-1.3c2-0.1,4.1,0.2,6.2,1.3
		c2.1,3.3,4.1,2.1,6.2-1.3c2-1.5,4-1.4,6,1.3c1.9,0.9,3.8,2.3,5.6,0c1.8,2.7,3.4,1.6,5,0c3.1-1.2,5.7,4,7.5,0c1.8-1.3,2.8,3,2.8,0
		c0-0.3,0-0.5,0-0.8c0,0,0-0.2,0-0.6c0,0,0-0.2,0-0.4c0-0.7,0-1.9,0-2.7c0,0,0-0.2,0-0.6c0,0,0-0.1,0-0.1c0-0.5,0-1.4,0-2.6
		c0-0.1,0-0.1,0-0.2c0,0,0-0.1,0-0.3c0-0.4,0-1.1,0-2.7c0-0.8,0,0,0-3.6c0,0-0.1-1-0.3-2.9c-2.7-10.2-2-20.3,0-30.2
		c0-1,0.2-2.9,0.2-3.3c3.9-11.7,1.8-23.8,0.2-36.1c0-1.6,0-3.2,0-4.5c0-3.1,0-6,0-8.7c0-11.2,0-18.6,0-18.6S360.9,3.6,354.7,3.6z"/>
	<path class="st0" d="M467.8,144.9c-3.1,0-6.7,1.7-10.6,0c-3.9,0.1-8-4.3-12.1,0c-4.1-1.4-8.2,0.3-12.1,0c-3.9,2.4-7.5,3.4-10.6,0
		c-3.1,0-5.7,0-7.5,0c-1.8,0-2.8,0-2.8,0s0,6.4,0,16.3c-0.1,1.1-0.2,2-0.2,3c-2.8,12.2-2.8,24.3,0.2,36.5c-0.1,0.8,0,2.8,0,3.5
		c0,0,0,0.1,0,0.4c0,0,0,0.1,0,0.1c0,0.8,0,2.7,0,5.3c0,0.1-0.1,0.8-0.2,1.6c-4.8,12-2.8,24.1,0.2,36.1c0,0.8,0.1,1.7,0.1,2.4
		c0,8.6,0,14.1,0,14.1s1,0,2.8,0c1.8,0,4.4,2.9,7.5,0c3.1-0.1,6.7-0.7,10.6,0c1.9-0.6,3.9-1.2,6-1.3c2-0.1,4.1,0.2,6.2,1.3
		c2.1,3.3,4.1,2.1,6.2-1.3c2-1.5,4-1.4,6,1.3c1.9,0.9,3.8,2.3,5.6,0c1.8,2.7,3.4,1.6,5,0c3.1-1.2,5.7,4,7.5,0c1.8-1.3,2.8,3,2.8,0
		c0-0.3,0-0.5,0-0.8c0,0,0-0.2,0-0.6c0,0,0-0.2,0-0.4c0-0.7,0-1.9,0-2.7c0,0,0-0.2,0-0.6c0,0,0-0.1,0-0.1c0-0.5,0-1.4,0-2.6
		c0-0.1,0-0.1,0-0.2c0,0,0-0.1,0-0.3c0-0.4,0-1.1,0-2.7c0-0.8,0,0,0-3.6c0,0-0.1-1-0.3-2.9c-2.7-10.2-2-20.3,0-30.2
		c0-1,0.2-2.9,0.2-3.3c3.9-11.7,1.8-23.8,0.2-36.1c0-1.6,0-3.2,0-4.5c0-3.1,0-6,0-8.7c0-11.2,0-18.6,0-18.6S474,144.9,467.8,144.9z"
		/>
</g>
<polygon class="st1" points="160.8,405.5 160.9,390.1 159.9,374.8 160.7,368.1 159.1,354 143.8,354.6 128,354.7 112.8,354.3 
	113,364.2 111.7,375.3 123.5,375.5 125.7,388.7 124.5,402.6 122.4,406.3 117.8,407.6 113.6,408.7 111.4,409.2 107.7,406.8 
	102.1,407.4 99.7,402.6 101.6,390.1 101.8,377.6 102.1,365.2 102.4,352.7 102.2,340.2 101.7,327.7 101.7,315.3 102.2,310.5 
	107.7,309.6 110.7,308.7 114.9,308.8 117.8,309.4 122.9,310.9 125,315.3 124.3,334 142,334.9 158.8,332.8 158.3,323.2 159,312.6 
	156.5,303.2 152.8,293.9 141.3,288.7 128.6,286.8 114.9,289 110.7,287.9 96.9,287.5 84.5,290 73.7,295 66.7,302.5 66.6,312.6 
	67.2,325.8 66.9,339.1 64.6,352.4 67.1,365.7 66.9,378.9 65.8,392.2 66.2,405.5 67.3,415.2 73.6,423 83.9,429.9 96.9,431.5 
	111.4,429.8 113.6,431.1 128.6,429.9 140.9,427.5 152.4,423.5 "/>
<path class="st1" d="M234.3,389.9l7,13l4.8,13.8l6.7,12.6l11.9,0.5l12.5,1.3l13.8-0.4l-7.6-11.2l-3.3-11.8l-6.7-10.3l-6.1-10.6
	l-3.4-11.1l11.1-5.4l6-18.2l1.2-13.2l0.2-13.2l-0.1-13.2l-1.2-10l-6.9-7.7l-10.6-5.8l-12.6-2.4l-14.7,1.3l-14.7,0.4l-12.5-1.3
	l-12.5,1.7l-8.8-0.2l-2.6,12.2l2.6,12.9l-0.9,12.9l0.8,12.9l-2.7,12.9l0.6,12.9l0.1,12.9l2.2,12.9l-2.2,12.9l-0.5,13l0.4,13.9
	l18.4-0.6l18.4,0.5l-2-14.3l2.5-13.3l-2.6-13.3l-0.1-13.9l8.5-0.3L234.3,389.9z M221.3,339.9l-0.5-14.3l0.9-14.1l18.7-1l4.8,2.2
	l1.1,4.1l0.1,16l-0.4,16l0.1,4.7l-5.6,0.8l-18.1-0.9L221.3,339.9z"/>
<polygon class="st1" points="345.5,417.2 343.6,404.2 343,391.3 343.3,378.3 343.4,365.4 345.1,352.5 344.8,339.5 343.6,326.6 
	344.7,313.6 343.8,300.7 343.3,288.5 326.4,287.5 308.8,287.6 307.3,300.7 308.5,313.6 309.8,326.5 309.6,339.5 308.6,352.4 
	309.4,365.4 308.8,378.3 310,391.3 307.8,404.2 307.6,417.2 309.2,429.7 326.4,430.7 343.1,429.2 "/>
<path class="st1" d="M421.2,426.9l15,1.3l13.1,0l11.7-5.9l5.1-9.1l0.4-9.9l2-12.1l-0.1-12.1l-1.9-12.1l-0.1-12.1l2.2-12.1l-0.9-3.6
	l-0.6-14.3l-0.4-14.3l-1.5-9.7l-6.1-7.7l-10.5-5.3l-12.5-1.8l-15,0.6l-15-2.1l-11.2,1.4l-11.2-0.6l-13.5,0.1l0.6,13.3l0.6,12.9
	l0.2,12.9l-1.4,12.9l-0.2,12.9l1,12.9l0.5,12.9l-1.7,12.9l0.8,12.9l-1.2,13l0.1,13.9l14.1-1L395,429l11.2,0.3L421.2,426.9z
	 M405.4,381.6l-0.2-12.3l1.4-12.3l0.2-12.3l-1-12.3l-0.5-12.3l1.4-11.7l18.9-0.6l4.3,2l0.8,3.6l1.6,13l-1,13l2.1,3.5l-0.3,14.4
	l-0.7,14.4l0.6,14.4l-2.3,14.4l0,4.3l-5.2,0.7l-19,0.1L406,394L405.4,381.6z"/>
<polygon class="st1" points="130.7,507.5 130,502.5 131.2,491.1 114.4,491.6 98.6,492.3 97.2,507.9 106,507.7 107.3,528.3 
	105.3,531.4 101.8,533 99,532.7 97.4,532.3 94.9,532.2 91,531.8 89.7,528.3 90.5,515.2 89.7,502.2 89.7,489.1 91.2,476.1 89.9,463 
	91.7,460.2 94.9,459 96.9,459.8 99.8,458.9 101.8,458.5 104.9,460.3 107.1,463 106.6,476.7 118.6,475.9 131.6,477.5 130.1,461 
	125.8,447.4 109.3,443.5 99.8,441.6 96.9,442 87.4,441.4 71.5,448.1 65.9,461 64.8,474.9 65.9,488.8 65.3,502.7 65.7,516.6 
	65.5,530.5 71.5,543.3 87.4,547.9 97.4,548.9 99,548.5 109.3,549.9 126,544 131.7,530.5 131.2,519 "/>
<path class="st1" d="M217.3,522.1l-3.8-13.1l-2.7-13.4l-4.1-13.1l-2.3-13.5l-3.6-13.2l-3.8-12.7l-15.1-0.9l-15.6,0.1l-3.2,13.4
	l-2.5,13.4l-2.7,13.4l-4.3,13l-2.4,13.5l-3.8,13.1l-1.9,13.6l-4.1,13.4l12.4-0.7l11.6,0l4.1-19l12.5-0.3l12.2,0.6l3.8,19.2l12.4-1.2
	l11.7,0.7l-3.3-12.8L217.3,522.1z M173.3,512.1l3.1-14.8l2.3-15.1l3.3-15.6l2.5,15.8l3.7,14.9l2.4,14.7L173.3,512.1z"/>
<polygon class="st1" points="321.8,509 322.5,495.7 322.6,482.4 322,469.1 322.5,455.8 322.2,443 309.5,442.8 296.1,442.3 
	291.2,457.3 288.2,472.8 282,487.4 278.4,502.4 273.1,487.8 270.1,472.4 265.4,457.4 260.5,442.4 247.1,443.1 234.1,442.7 
	234.5,455.7 234.6,469 232.7,482.3 233,495.6 234.2,508.9 234.5,522.2 232.9,535.6 234,548.7 244.6,548.8 256.2,549.4 254.8,534.6 
	256.3,520.4 254.4,506.2 256.3,492 255.2,477.5 258.3,489.9 263,501.6 266.4,513.6 269,526.4 287.8,526.5 290.7,513.6 294.9,501.8 
	297.4,489.4 301.1,477.8 302.4,491.7 301.1,506 302.2,520.3 301.1,534.6 301.9,548.1 322.7,548.7 321.9,535.6 323.2,522.3 "/>
<polygon class="st1" points="375.7,530.5 358.6,531 359.1,517.4 357.6,502.8 372.6,504.6 386.1,503 387,485.8 372.6,487 
	358.1,486.2 359.3,473 358.7,460.4 375.1,460 392,460.3 392.3,442 375.1,443.3 358.4,442.7 343.6,441.5 333.3,442 334.9,455.7 
	334.4,469 334.2,482.3 332.9,495.6 334,508.9 332.9,522.2 333.5,535.6 333.1,549.4 343.6,548.5 358.4,549.2 375.7,549.1 
	393.5,549.2 393.3,531.1 "/>
<polygon class="st1" points="464.2,491.3 447.7,487.9 433.1,487.2 429.4,486.2 429.6,482.9 429.4,464.2 429.7,461.2 433.1,460 
	438.9,460.5 442.3,461.1 443.6,464.2 443.8,474.4 455.7,474.8 467.6,474.5 467.4,461 462.3,448 446.4,442.1 425.6,441.7 
	409.3,447.6 404.4,461 403.2,473.1 403.3,485.1 409.4,498.1 424.2,504.8 439.2,504.5 443,504.5 443.7,507.9 444.8,527.1 
	442.8,530.3 439.2,530.8 433.4,530.5 429.4,530.8 429.8,527.1 429,516.4 416.7,517.2 404.8,516.9 403.4,530.3 408.9,544.5 
	426.1,549.3 446.7,547.9 463.2,543.9 468.2,530.3 468.6,517.8 468.8,505.4 "/>
</svg>
