<svg id="Layer_1" data-name="Layer 1" xmlns="http://www.w3.org/2000/svg" viewBox="0 0 256 256"><defs><style>.cls-1{fill:#fff;}</style></defs><path class="cls-1" d="M124,0h7.63a3.56,3.56,0,0,0,.47.1,125.1,125.1,0,0,1,52.35,13.36,128,128,0,0,1,70,106.76c.06,1,.15,2,.22,3v9.37c0,.25-.1.49-.11.74a128.75,128.75,0,0,1-6.6,35.86,127.52,127.52,0,0,1-31.71,50.54,125.61,125.61,0,0,1-31,22.41,124.31,124.31,0,0,1-50.32,13.6l-3.35.23h-7.37c-1.12-.08-2.24-.17-3.35-.22a121.62,121.62,0,0,1-21.49-3.06,124.52,124.52,0,0,1-38.71-16.19A128.17,128.17,0,0,1,6,163.59a6.52,6.52,0,0,1-.15-.65l.69.28L53.86,183a1,1,0,0,1,.66.86,35.88,35.88,0,0,0,40.14,28.07,34.86,34.86,0,0,0,24.51-15.36A35.4,35.4,0,0,0,125.48,175a1,1,0,0,1,.45-1q21.1-15.17,42.21-30.35a2,2,0,0,1,1-.32c2.34-.17,4.71-.14,7-.47a45.91,45.91,0,0,0,28-14.45c11.54-12.46,15.71-27.21,12.14-43.79-3.26-15.12-12.16-26.2-26-33.09a45.4,45.4,0,0,0-31.88-3.38,46.86,46.86,0,0,0-28.2,19.65A47.9,47.9,0,0,0,121.79,95a2.52,2.52,0,0,1-.44,1.25q-14.7,21.54-29.43,43.07a.93.93,0,0,1-.91.48,35,35,0,0,0-21.11,5.91,1,1,0,0,1-1.08.11l-59.94-25c-2.5-1-5-2.06-7.5-3.09v-.37a5.35,5.35,0,0,0,.11-.55c.42-3.32.74-6.66,1.27-10a125.79,125.79,0,0,1,12.55-38A127,127,0,0,1,44.37,31.63,125.16,125.16,0,0,1,91.93,5.22a123.91,123.91,0,0,1,28.79-5C121.81.16,122.91.07,124,0Z"/><path class="cls-1" d="M201.51,95a31.86,31.86,0,1,1-31.85-32.17A32,32,0,0,1,201.51,95Zm-31.8-24.23a24.17,24.17,0,1,0,23.95,24.08A24.08,24.08,0,0,0,169.71,70.79Z"/><path class="cls-1" d="M80.18,150.57A26.65,26.65,0,0,1,114,164.64a27.22,27.22,0,0,1-15,36.73,26.61,26.61,0,0,1-33.57-13.56c.26.1.47.17.67.26,5.07,2.11,10.12,4.29,15.22,6.32a19.74,19.74,0,0,0,25.53-11,20,20,0,0,0-8.77-25.11,74.5,74.5,0,0,0-7.25-3.2c-3.33-1.42-6.68-2.79-10-4.19Z"/></svg>