<svg id="Layer_1" data-name="Layer 1" xmlns="http://www.w3.org/2000/svg" viewBox="0 0 256 256"><defs><style>.cls-1{fill:#fff;}</style></defs><path class="cls-1" d="M255,60.69V195.31c-.24,1.55-.46,3.1-.72,4.65a65.44,65.44,0,0,1-50.44,53.53c-2.81.65-5.69,1-8.53,1.51h-45.4c-1.41-.61-1.34-1.82-1.34-3.07q0-123.9,0-247.79a2.31,2.31,0,0,1,0-.79c.3-.79.65-1.57,1-2.35h45.72c1.13.19,2.26.41,3.4.57A65.35,65.35,0,0,1,253.46,52C254.11,54.87,254.49,57.79,255,60.69ZM174,139.9c-.16,15.46,11.47,26.25,25.56,26.17a25.51,25.51,0,0,0,25.18-26.2c-.2-13.55-12.11-24.77-26-24.52S173.8,126.57,174,139.9Z"/><path class="cls-1" d="M122.29,255H60.69c-1.55-.24-3.1-.47-4.65-.73A65.44,65.44,0,0,1,2.51,203.85c-.64-2.82-1-5.69-1.51-8.54V60.69l.69-4.5a65.63,65.63,0,0,1,50-53.59c3-.67,6-1.07,9-1.6h61.6c1.17.78,1,2,1,3.14V251.86a2.6,2.6,0,0,1,0,.79C123,253.44,122.62,254.22,122.29,255Zm-18.94-20.69c-.27-71-.53-141.76-.79-212.62h-2.14c-11.64,0-23.28-.07-34.92,0a42.23,42.23,0,0,0-9.11,1.06C35.46,27.65,21.65,45.25,21.64,67q0,61,0,122.06a52.44,52.44,0,0,0,1,9.92C26.51,219.1,45,234.31,65.51,234.31h37.84Z"/><path class="cls-1" d="M88.31,77.19c0,13.64-10.28,23.9-23.88,23.85s-23.76-10.29-23.77-24S51,53.38,65.05,53.39C78.15,53.4,88.31,63.8,88.31,77.19Z"/></svg>