<svg id="Layer_1" data-name="Layer 1" xmlns="http://www.w3.org/2000/svg" viewBox="0 0 512 512"><defs><style>.cls-1{fill:#231f20;}</style></defs><path class="cls-1" d="M409,90.27a116.18,116.18,0,0,0-31.27-44.76q-21.19-19-53.95-29.79T245.33,4.9H93V396.38H193.15V292.44h52.18q44.76,0,77.52-10.82T377,251.54a119,119,0,0,0,31.72-46.25Q419,178.32,419,146A151.73,151.73,0,0,0,409,90.27ZM301.65,198.18q-17.19,18.67-56.32,18.67H193.15v-137h52.18q19,0,32.76,4.75a60.61,60.61,0,0,1,22.82,13.49A54.88,54.88,0,0,1,314.4,119a78.09,78.09,0,0,1,4.45,27Q318.85,179.51,301.65,198.18Z"/><rect class="cls-1" x="92.96" y="419.51" width="100.2" height="25.06"/><rect class="cls-1" x="92.96" y="467.7" width="100.2" height="39.41"/></svg>